<?xml version="1.0" encoding="utf-8"?>
<!-- Generator: Adobe Illustrator 16.0.0, SVG Export Plug-In . SVG Version: 6.00 Build 0)  -->
<!DOCTYPE svg PUBLIC "-//W3C//DTD SVG 1.1//EN" "http://www.w3.org/Graphics/SVG/1.1/DTD/svg11.dtd">
<svg version="1.1" id="Layer_1" xmlns="http://www.w3.org/2000/svg" xmlns:xlink="http://www.w3.org/1999/xlink" x="0px" y="0px"
	 width="399px" height="482.9px" viewBox="0 0 399 482.9" style="enable-background:new 0 0 399 482.9;" xml:space="preserve">
<g>
	<path style="fill-rule:evenodd;clip-rule:evenodd;fill:#0F0706;" d="M1,441.9C1,316,1,190,1,64c3.9-2.7,8.4-1.3,12.6-1.5
		c6.5-0.3,6.7-0.3,6.8-6.8c0-2.2,0-4.3,0-6.5c0.2-6.7,1.1-7.6,8-7.8c2.8-0.1,5.7-0.1,8.5,0c3.2,0.1,4.6-1.3,4.5-4.5
		c-0.1-2.3,0-4.7,0-7c0.1-8.8,0.7-9.4,9.3-9.5c2.3,0,4.7-0.1,7,0c3.4,0.1,4.8-1.4,4.7-4.8c-0.1-3,0-6,0-9c0-2,0.1-4,1.5-5.6
		c84,0,168,0,252,0c2.7,3.9,1.3,8.4,1.5,12.6c0.3,6.5,0.4,6.7,6.8,6.8c2.2,0,4.3,0,6.5,0c6.6,0.2,7.6,1.1,7.7,7.5c0.1,3,0.1,6,0,9
		c-0.1,3.2,1.4,4.5,4.5,4.4c3.2-0.1,6.3-0.1,9.5,0c5.7,0.2,6.7,1.2,6.9,6.8c0.1,3.2,0.1,6.3,0,9.5c-0.1,3.5,1.5,4.8,4.8,4.7
		c3.5-0.1,7-0.1,10.5,0.1c3.6,0.1,5.5,1.9,5.6,5.6c0.1,3,0,6,0.1,9c0.1,5.9,0.4,6.3,6.2,6.4c2.7,0,5.3-0.1,8,0.1
		c2,0.1,4.1-0.1,5.5,1.7c0.3,1.2,0.2,2.3,0.2,3.5c0,116.8,0,233.7,0,350.5c0,0.8,0,1.7-0.1,2.5c-3,3-6.9,1.8-10.4,1.8
		c-10.1,0.2-9.4-0.5-9.4,9.6c0,11.4-0.1,11.4-11.3,11.5c-10.3,0-9.6-0.7-9.8,9.7c-0.1,3.4,1,7-1.7,10c-1.2,0.3-2.3,0.2-3.5,0.2
		c-102.8,0-205.7,0-308.5,0c-0.8,0-1.7,0-2.5-0.1c-3-3-1.8-6.9-1.8-10.4c-0.2-10.1,0.4-9.4-9.6-9.4c-11.4,0-11.4,0-11.4-11.3
		c0-10.4,0.6-9.6-9.8-9.7C7.4,443.4,3.9,444.2,1,441.9z"/>
	<path style="fill-rule:evenodd;clip-rule:evenodd;fill:#FEFEFE;" d="M1,483.9c14-0.1,28-0.1,42-0.2c1.2,0.1,2.3,0.2,3.5,0.2
		c102.7,0,205.3,0,308,0c1.2,0,2.3-0.1,3.5-0.2c2-1.6,4.4-1.4,6.7-1.4c9.3,0,18.6,0,28,0c5.3,0,5.7-0.5,5.7-5.7c0.1-9.3,0-18.6,0-28
		c0-2.3-0.2-4.7,1.4-6.7c0.1-1.3,0.2-2.7,0.2-4c0-116.3,0-232.7,0-349c0-1.3-0.1-2.7-0.2-4c0.1-28,0.1-56,0.2-84
		c2.1,0.9,0.9,2.7,0.9,4c0.1,30.3,0.1,60.7,0.1,91c0,128.2,0,256.3,0.1,384.5c0,3.7-0.8,4.6-4.6,4.6c-130.3-0.1-260.6-0.1-391-0.2
		C4,484.9,2.1,486,1,483.9z"/>
	<path style="fill-rule:evenodd;clip-rule:evenodd;fill:#321704;" d="M85,441.9c-7,0-14,0-21.1,0c-2.3-2.9-1.4-6.3-1.5-9.5
		c-0.1-3.8-0.2-7.6,0.1-11.3c-0.2-6.9-0.2-13.9,0-20.8c-0.2-5-0.1-10,0-15c0-3.4-1.4-4.6-4.8-4.8c-4.9-0.2-10,1.3-14.7-1.4
		c0-7,0-14.1,0-21.1c2.9-2.3,6.4-1.5,9.6-1.5c83.6,0,167.2,0,250.8,0c2.2,0,4.3,0,6.5-0.1c2.9-0.1,4.2-1.5,4.3-4.3
		c0.1-5-0.1-10,0.2-15c-0.3-3-0.1-6-0.1-9c0-84.8,0-169.6,0-254.4c0-3.2-0.9-6.7,1.7-9.5c5.3,0,10.6,0.3,15.8,0
		c4.3-0.3,5.4,1.4,5.2,5.4c-0.3,5.3,0,10.5,0,15.8c2.3,2.7,1.6,6,1.6,9.1c0,73.3,0,146.6,0,219.9c0,18.8,0,37.6,0,56.5
		c0,2.5,0.2,5-0.7,7.4c-0.3,0.6-0.7,1.1-1.2,1.5c-1.6,0.9-3.5,1-5.3,1c-12.2,0-24.4,0.2-36.6-0.1c-11,0.3-22,0.1-33,0.1
		c-42.8,0-85.6,0-128.4,0c-2,0-4,0.1-6-0.1c-11.3,0.2-22.6,0-33.9,0.1c-6.6,0-6.9,0.3-6.9,6.6c0,12.4-1.2,11.2,11.3,11.2
		c9.8,0.1,19.6-0.1,29.4,0.1c10.7-0.3,21.3-0.1,32-0.1c43.1,0,86.3,0,129.4,0c2,0,4-0.1,6,0.1c12.3-0.2,24.5-0.1,36.8-0.1
		c1.7,0,3.3,0.1,4.9,0.7c0.6,0.3,1.1,0.8,1.4,1.4c1.5,5.7,0.8,11.6,0.6,17.4c-0.1,2.7-1.8,4.2-4.5,4.5c-2.5,0.3-5,0.2-7.5,0.2
		c-76.1,0-152.2,0-228.3,0c-12.7,0-11.3-0.7-11.5,11.2C86.6,436.5,87.1,439.5,85,441.9z"/>
	<path style="fill-rule:evenodd;clip-rule:evenodd;fill:#60463C;" d="M316.1,64c0,15.3-0.1,30.6-0.1,45.9
		c0,75.7-0.1,151.4-0.1,227.1c-7.1,2.7-14.1,2.4-21.2,0.2c-1.9-3-1.3-6.5-1.3-9.7c0-83.7,0-167.5,0-251.2c0-11.3,0.8-10.5-10.6-10.5
		c-69.6,0-139.2,0-208.8,0c-3.1,0-6.3,0.5-9.3-1c-0.2-0.2-0.5-0.5-0.7-0.7c0-5.8,0.2-11.7,0-17.5c0-2.6,0.9-3.7,3.5-3.4
		c0.8,0.1,1.7,0,2.5,0c80.1,0,160.1,0,240.2-0.1c4.9,0,6.4,1.3,6,6.1C315.7,53.9,316,59,316.1,64z"/>
	<path style="fill-rule:evenodd;clip-rule:evenodd;fill:#969696;" d="M336.9,379c0-95.6,0-191.3,0-286.9c0-2.3,0-4.7,0-7
		c5.8,0,11.7,0.1,17.5-0.2c3-0.1,3.9,1.1,3.5,3.7c0,0.2,0,0.3,0,0.5c0,96.6,0,193.1-0.1,289.7C350.9,381.6,343.9,381.4,336.9,379z"
		/>
	<path style="fill-rule:evenodd;clip-rule:evenodd;fill:#412F28;" d="M85,441.9c0-5.8,0.1-11.6-0.1-17.5c-0.1-2.6,0.9-3.7,3.5-3.5
		c1.3,0.1,2.7,0,4,0c79.4,0,158.7,0,238.1,0c6.4,0,6.4,0,6.4-6.5c0-4.8,0-9.7,0-14.5c7-2.5,14-2.5,21,0c0,12.3-0.1,24.7,0.1,37
		c0.1,4-1.1,5.1-5.1,5C263.7,441.9,174.3,441.9,85,441.9z"/>
	<path style="fill-rule:evenodd;clip-rule:evenodd;fill:#60463C;" d="M43.1,336.9c0-10.5-0.1-21-0.1-31.4c0-78.5,0-157.1-0.1-235.6
		c0-4.8,1.2-6.4,6.1-6c5,0.4,10,0,15,0l0.2,0.2c1.7,1.9,1.5,4.3,1.5,6.6c0,86.6,0,173.3,0,259.9c0,2.2,0.1,4.4-1.2,6.3
		C57.3,339.5,50.2,339.5,43.1,336.9z"/>
	<path style="fill-rule:evenodd;clip-rule:evenodd;fill:#4E3931;" d="M43.1,336.9c7,0,13.9,0,20.9,0c1.9-1.7,4.3-1.6,6.6-1.6
		c72.6,0,145.1,0,217.7,0c2.3,0,4.7-0.1,6.6,1.6c7,0,14,0,20.9,0c0,5.5-0.1,11,0.1,16.5c0.1,3.4-0.8,4.9-4.4,4.6
		c-3.3-0.3-6.7-0.1-10-0.1c-86.2,0-172.4,0-258.6-0.1C43.1,350.9,43.1,343.9,43.1,336.9z"/>
	<path style="fill-rule:evenodd;clip-rule:evenodd;fill:#412F28;" d="M43,379c5.8,0,11.5,0.1,17.3-0.1c2.8-0.1,3.8,1,3.7,3.8
		c-0.1,5.8-0.1,11.5-0.1,17.3c-7,2.5-13.9,2.5-20.9,0C43.1,393,43.1,386,43,379z"/>
	<path style="fill-rule:evenodd;clip-rule:evenodd;fill:#321704;" d="M357.9,400c-7,0-14,0-21,0l0,0c-2.5-7-2.5-14,0.1-21l-0.1,0.1
		c7,0,14-0.1,21-0.1C357.9,385.9,357.9,392.9,357.9,400z"/>
	<path style="fill-rule:evenodd;clip-rule:evenodd;fill:#4E3931;" d="M43.1,400c7,0,13.9,0,20.9,0c0,7,0,14,0,21
		c-7,2.5-13.9,2.6-20.9,0C43.1,413.9,43.1,407,43.1,400z"/>
	<path style="fill-rule:evenodd;clip-rule:evenodd;fill:#412F28;" d="M43.1,420.9c7,0,13.9,0,20.9,0c0,7,0,14,0,21
		c-5.8,0-11.5-0.1-17.3,0.1c-2.8,0.1-3.8-1-3.7-3.8C43.1,432.5,43.1,426.7,43.1,420.9z"/>
	<path style="fill-rule:evenodd;clip-rule:evenodd;fill:#CACACA;" d="M294.9,399.8c-26.5,0.1-53,0.1-79.4,0.1
		c-29.5,0-58.9-0.1-88.4-0.1c-2.6-6.9-2.6-13.8,0-20.7c23.6-0.1,47.3-0.1,70.9-0.1c32.3,0,64.6,0.1,96.9,0.1
		C297.5,386,297.5,392.9,294.9,399.8z"/>
	<path style="fill-rule:evenodd;clip-rule:evenodd;fill:#969696;" d="M127,379.1c0,6.9,0,13.8,0,20.7c-12.8,0.1-25.6,0-38.4,0.2
		c-2.7,0-3.9-0.6-3.7-3.6c0.2-4.6,0.2-9.3,0-14c-0.1-2.9,1-3.6,3.7-3.6C101.5,379.1,114.3,379.1,127,379.1z"/>
	<path style="fill-rule:evenodd;clip-rule:evenodd;fill:#969696;" d="M294.9,399.8c0-6.9,0-13.8,0-20.7c14-0.1,28.1-0.1,42.1-0.2
		c0,7,0,14-0.1,21C322.9,399.9,308.9,399.8,294.9,399.8z"/>
	<path style="fill-rule:evenodd;clip-rule:evenodd;fill:#6F5146;" d="M294.9,336.9c-77,0-154,0-230.9,0c0-91,0-181.9,0.1-272.9
		c75.5,0,151,0,226.4-0.2c4.7,0,4.5,2.4,4.5,5.6C295,158.6,295,247.8,294.9,336.9z"/>
	<path style="fill-rule:evenodd;clip-rule:evenodd;fill:#121E4D;" d="M252.9,252.9c0,5.7-0.1,11.3,0.1,17c0.1,2.9-0.7,4.1-3.9,4.1
		c-39.4-0.1-78.9-0.1-118.3,0c-3.2,0-4-1.2-3.9-4.1c0.2-5.7,0.1-11.3,0.1-17L127,253C169,253,211,253,252.9,252.9L252.9,252.9z"/>
	<path style="fill-rule:evenodd;clip-rule:evenodd;fill:#121E4D;" d="M148,158.2c0-9.2,0.1-18.3,0-27.5c0-2.7,0.8-3.9,3.7-3.8
		c4.7,0.2,9.3,0.2,14,0c2.7-0.1,3.4,1,3.4,3.5c-0.1,18.7-0.1,37.3,0,56c0,2.5-0.7,3.6-3.4,3.5c-4.7-0.2-9.3-0.2-14,0
		c-2.9,0.1-3.7-1.1-3.7-3.8C148.1,176.9,148,167.6,148,158.2z"/>
	<path style="fill-rule:evenodd;clip-rule:evenodd;fill:#121E4D;" d="M211,158.1c0-9,0.1-18-0.1-27c-0.1-3.3,1.1-4.5,4.3-4.2
		c5.4,0.5,12.3-2.3,15.9,1.2c3.1,3,0.8,9.8,0.9,15c0.1,14.2-0.1,28.3,0.1,42.5c0,3.6-1.1,4.7-4.6,4.5c-3.8-0.3-7.7-0.3-11.5,0
		c-3.8,0.3-5.3-0.8-5.1-4.9C211.2,176.1,211,167.1,211,158.1z"/>
	<path style="fill-rule:evenodd;clip-rule:evenodd;fill:#121E4D;" d="M127,252.9c-5.7,0-11.3-0.1-17,0.1c-2.9,0.1-4.3-0.7-4.1-3.9
		c0.2-4.6,0.1-9.3,0-14c-0.1-2.4,0.9-3.3,3.2-3.2c4.8,0.1,9.7,0.1,14.5,0c2.7-0.1,3.4,1.1,3.4,3.6C126.9,241.3,127,247.2,127,252.9
		L127,252.9z"/>
	<path style="fill-rule:evenodd;clip-rule:evenodd;fill:#121E4D;" d="M253,253c0-5.7,0.1-11.3-0.1-17c-0.1-2.9,0.7-4.3,3.9-4.1
		c4.6,0.2,9.3,0.1,14,0c2.4-0.1,3.3,0.9,3.2,3.2c-0.1,4.8-0.1,9.7,0,14.5c0.1,2.7-1.1,3.4-3.6,3.4C264.6,252.9,258.8,252.9,253,253
		L253,253z"/>
</g>
</svg>
