<?xml version="1.0" encoding="utf-8"?>
<!-- Generator: Adobe Illustrator 16.0.0, SVG Export Plug-In . SVG Version: 6.00 Build 0)  -->
<!DOCTYPE svg PUBLIC "-//W3C//DTD SVG 1.1//EN" "http://www.w3.org/Graphics/SVG/1.1/DTD/svg11.dtd">
<svg version="1.1" id="Layer_1" xmlns="http://www.w3.org/2000/svg" xmlns:xlink="http://www.w3.org/1999/xlink" x="0px" y="0px"
	 width="402.6px" height="495.9px" viewBox="0 0 402.6 495.9" style="enable-background:new 0 0 402.6 495.9;" xml:space="preserve"
	>
<g>
	<path style="fill-rule:evenodd;clip-rule:evenodd;fill:#141010;" d="M188.2,495.8c-0.2,0-0.5,0-0.7,0c-1.9-0.3-3.9-0.2-5.8-0.5
		c-8.6-1.5-16.5-4.7-23.5-9.9c-5.4-4-11.5-5.7-18.2-6c-4.2-0.1-8.5,0.4-12.7,0.7c-6.7,0.4-13.4,0.5-20.1,0.1
		c-2.3-0.1-4.6-0.1-6.9-0.2c-5.6-0.2-11.2-0.5-16.8-0.8c-7.7-0.4-15.4-0.4-23.1-0.4c-4.5,0-9,0.5-13.5,0.8c-7.3,0.5-14.7,0.9-21.9-1
		c-6.8-1.7-10.9-6.1-12.4-12.9c-0.9-4-0.9-8.2-0.7-12.3c0.4-6.1,1.3-12.1,2.2-18.1c0.2-1.5,0.2-3.1,0-4.7c-0.3-3.2-2.1-5.5-4.9-7.1
		c-1.6-0.9-3.3-1.6-5.1-2.2c-0.4-0.1-1-0.3-1.1-0.8c-0.1-0.5,0.4-0.8,0.9-1.1c5.3-3.3,7.7-8.2,8.2-14.3c0.3-3.7,0.2-7.4,0.8-11
		c0.1-0.7,0-1.5,0.8-1.9c0.8-0.1,1.3,0.5,1.9,0.9c3.8,3.2,5.8,7.3,5.9,12.2c0.1,3.1-0.1,6.2-0.5,9.3c-0.6,4.3-0.8,8.7-0.1,13
		c0.5,3.2,0,6.4-0.2,9.6c-0.2,3-0.6,6-0.8,9.1c-0.1,1.4,0.4,2.3,1.5,3.2c4.2,3.2,9.1,4.6,14.3,5c6.1,0.5,12.2-0.2,18.3-0.4
		c3.8-0.1,7.6-0.4,11.4-0.6c3.8-0.2,7.7-0.3,11.5-0.6c1.8-0.1,3.7-0.2,5.5-0.2c3.1-0.1,6.1-0.3,9.2-0.3c4.2,0,8.3-0.3,12.5-0.2
		c13.9,0.1,27.8,0.9,41.5,3.6c3.1,0.6,6.2,1.5,9.5,1.1c2.6-0.3,5.2-0.7,7.9-1c2.1-0.2,2.4-0.1,3.5,1.7c2,3.5,4.1,7,6.2,10.6
		c0.8,1.4,0.9,1.4,2.4,1c6.3-1.6,12.7-2.3,19.2-2.6c7.8-0.4,15.7-0.2,23.5-0.2c6.7,0,13.3-0.5,19.9-1.6c10.1-1.6,20.2-2.7,30.4-3.7
		c8-0.8,15.9-1.6,23.9-2.5c6.7-0.8,13.3-0.1,19.9,1.2c7.1,1.4,14.1,3.2,21.3,4.5c1.5,0.3,3.1,0.5,4.6,0.3c1.8-0.2,3.1-1,3.9-2.6
		c1.1-2.1,2.4-4,4-5.8c3.7-4.3,8.3-6.7,14.1-6.8c4.3,0,8.3,0.9,12.3,2.2c3.9,1.3,7.8,2.6,11.7,3.9c1.8,0.6,1.9,0.5,1.9-1.4
		c0-27.5,0-55,0-82.6c0-19.9-0.1-39.8,0.1-59.6c0.1-7.3,0.1-14.6,0.2-21.9c0.1-3-1.1-5.2-3.4-7c-1.1-0.9-2.3-1.6-3.4-2.4
		c-0.7-0.5-1.5-1-2.2-1.5c-2.4-1.9-3.2-4.4-2.6-7.4c0.2-0.8,0.5-1.6,0.8-2.4c2.9-7.9,5.6-15.9,7.2-24.2c1.1-5.9,1.4-11.9,0.2-17.9
		c-0.7-3.5-2.3-6.7-3.9-9.9c-2.2-4.3-3.5-8.8-4.1-13.6c-0.8-6.1-0.2-12.1,0.7-18.1c0.8-5.2,1.8-10.3,2.4-15.5c0.1-1,0.2-2.1,0.3-3.1
		c0.1-1.1,0.7-1.8,1.8-2.2c1-0.4,2-0.8,3-1.2c1-0.4,1.5-1.1,1.6-2.3c0.3-6.4,0.5-12.9,0.9-19.3c0.3-5.8,0.6-11.6,0.8-17.4
		c0.3-6.2,0.3-12.3,0.1-18.5c-0.2-10.7-1.3-21.3-4-31.7c-0.8-3.1-0.4-6.2,0.4-9.2c0.6-2.2,1.6-4.3,2.6-6.4c0.2-0.5,0.5-1.1,1.2-1.2
		c0.6,0.3,0.7,0.9,0.9,1.5c2,6.5,3.5,13.1,4.3,19.8c1,8.2,1.2,16.4,0.9,24.7c-0.2,7.2-0.7,14.4-1.1,21.5c-0.4,6.7-0.6,13.5-0.6,20.3
		c0,3.7-0.2,7.5-0.4,11.3c-0.1,4.4,0.1,8.9,1.7,13.1c1,2.7,2.6,5,4.7,7c1.9,1.8,1.9,1.9,0.5,4.1c-2.1,3.3-3.9,6.8-4.6,10.7
		c-1,5.3,0,10.4,1.8,15.4c2.4,6.6,3.7,13.4,4.2,20.4c0.5,8.7,0.1,17.5,0.2,26.3c0.1,6.2,0.5,12.5,0.9,18.7c0.4,6.5,1,13.1,1.5,19.6
		c0.4,4.7,0.7,9.5,1.1,14.2c0.2,3,0.3,6,0.3,9c0.1,5.7,0.2,11.4,0.1,17.1c-0.1,6.7-0.2,13.5-0.5,20.2c-0.1,4.1,0,8.2-0.2,12.2
		c-0.4,9.2-0.4,18.5-0.2,27.7c0.2,9.4-0.1,18.9,0.2,28.3c0.3,10.7,0.1,21.4,0.2,32.1c0,4.2-0.4,8.5-1.7,12.6
		c-1.9,6.3-5.8,10.3-12.4,11.7c-4.1,0.8-8.2,0.7-12.3,0.2c-1.3-0.1-2.6-0.3-3.9-0.5c-3-0.5-5.8,0-8.5,1.4
		c-6.9,3.7-14.4,5.8-22.1,6.8c-6.6,0.8-13.3,0.7-20,0.4c-7.2-0.3-14.4-1.2-21.6-1.8c-6.1-0.5-12.2-0.8-18.3-0.7
		c-1.7,0-3.3,0.2-5-0.3c-1.1-0.4-1.7,0.1-2,1.3c-0.2,0.7-0.3,1.3-0.4,2c-0.2,1.3-1,2.1-2.3,2.4c-3.2,0.8-6.4,1.3-9.7,1.6
		c-4.7,0.4-9.5,0.4-14.3,0.2c-4.4-0.2-8.7-0.4-13.1-0.4c-8,0.1-15.9,0.9-23.6,3.6c-4.8,1.7-9.7,2.5-14.8,2.5c-0.3,0-0.6-0.1-0.8,0.1
		c-0.2,0-0.3,0-0.5,0c-0.5-0.2-1.1-0.1-1.6-0.1c-1.1,0-2.2,0-3.3,0C189.4,495.8,188.7,495.6,188.2,495.8z"/>
	<path style="fill-rule:evenodd;clip-rule:evenodd;fill:#141010;" d="M0,29.8c0-0.1,0-0.2,0-0.2c0.5-4.2,3.6-6.2,6.9-7.8
		c6.1-2.9,12.6-4.2,19.4-4.6c7.1-0.5,14,0.6,21,1.6c6.5,0.9,13,1.6,19.6,1.3c7.9-0.4,15.1-2.9,21.3-7.8c3.8-3,8-4.4,12.8-3.9
		c3.6,0.4,6.5,2,8.1,5.4c1.4,2.9,1.9,6,1.3,9.2c-1,1.4-2.3,2.4-3.7,3.4c-5.5,4-11.5,6.2-18.3,6.8c-4.9,0.4-9.7-0.2-14.5-1.3
		c-4.6-1.1-9.2-1.7-13.9-2.1c-7-0.6-13.9-1.3-20.7-3.1C29.4,24,20.6,31,20.5,41.2c0,2.8,0.4,5.5,1.6,8.1c1.9,4.2,2.4,8.6,2.5,13.1
		c0.1,3.9,0.1,7.8,0,11.6c-0.2,5.1-0.7,10.2-1.3,15.3c-1.4,12-3.6,23.8-5,35.8c-0.5,4.2-0.8,8.4-1.1,12.7c-0.8,9.4,1,18.6,3.1,27.7
		c1.4,6.2,3,12.3,3.6,18.6c0.3,3.6,1,7.1,1.5,10.7c0.4,3.4-0.1,6.6-1.7,9.7c-1.8,3.4-2.7,7-2.6,10.9c0.1,3.3,0.9,6.3,2.9,9
		c2.4,3.3,4.2,6.8,4.9,10.8c0.7,3.9,0.4,7.8-0.5,11.7c-0.7,2.9-1.6,5.8-2.6,8.6c-3.1,8.3-5.1,16.9-5.9,25.8
		c-0.9,10.4,1,20.2,7.2,28.7c3.5,4.7,4.5,9.8,3.2,15.3c-1.5,6.5-1.9,13-1.7,19.5c0.2,6.4-0.4,12.9-0.2,19.3c0,1.5-0.3,1.8-1.8,1.9
		c-2.7,0-5.4,0-8,0c-0.5,0-1,0-1.4-0.3c-0.4-0.5-0.3-1.1-0.1-1.6c0.2-0.8,0.5-1.5,0.9-2.2c0.5-1,1.1-2.1,1.5-3.1
		c0.6-1.6,0.4-2.3-1-3.1c-1.2-0.7-2.4-1.4-3.6-2.2c-4.8-3.4-7.5-8.2-8.3-14c-0.5-3.3-0.4-6.6-0.1-9.9c0.3-3.7,0.7-7.5,0.7-11.2
		c0-4.1-0.4-8.2-2.6-11.9c-0.5-0.9-0.3-1.6,0.4-2.4c2.7-3,4.8-6.5,6-10.4c1-3.1,1.4-6.3,1.6-9.6c0.1-2.7,0.4-5.4,0.2-8
		c-0.3-3.2-0.2-6.3-0.2-9.5c0.1-3.9,0.4-7.8,1.4-11.6c1-3.9,2.6-7.6,5-10.9c0.1-0.2,0.3-0.4,0.4-0.6c-0.4-0.3-0.9-0.1-1.3,0
		c-2.3,0.3-4.6,0.6-6.9,1c-2.1,0.4-3.8-0.5-5.7-1.1c-0.8-0.3-1-1.1-1-1.9c-0.3-2.8-0.6-5.6-0.8-8.4c-0.4-4.6-0.8-9.2-1.1-13.9
		c-0.3-4.3-0.6-8.6-0.8-12.9c-0.2-3.8-0.3-7.7-0.6-11.5c-0.2-2-0.2-4-0.2-6c-0.1-3-0.3-5.9-0.3-8.9c0-7.4-0.3-14.8-0.2-22.2
		c0-1.3,0-2.5,0-3.8c0-1.7,0-3.3,0-5c-0.1-2.2,0.2-4.3-0.1-6.5c0-12.6,0-25.3,0-37.9c0.3-1.6,0.1-3.2,0.1-4.7c0-1.7,0-3.4,0-5.1
		c0-2.9,0-5.7,0-8.6c0-2.9,0-5.9,0-8.8c0-4.4,0-8.9,0-13.3c-0.1-5.8,0.4-11.5,1-17.2c0.4-3.6,0.2-7.2-0.4-10.7
		c-0.2-1.3-0.4-2.5-0.5-3.8C0.1,31.2,0.2,30.4,0,29.8z"/>
	<path style="fill-rule:evenodd;clip-rule:evenodd;fill:#141010;" d="M247.2,0c0.7,2.3,1.4,4.7,2.7,6.7c3.3,5.1,8.2,7.5,14.1,8.2
		c4.7,0.6,9.5,0,14.2-0.1c4.7,0,9.4-0.3,14.1-0.5c9.8-0.4,19.6-0.7,29.4-1.1c14-0.6,28-1.5,41.9-2.7c4.3-0.4,8.5-0.9,12.8-1.3
		c1.1-0.1,2.3-0.1,3.5-0.1c3.3,0.2,5.1,2.1,5.9,5.7c0.2,0.8,0.3,1.6,0.3,2.4c0.2,2.1,1.2,3.7,3,4.7c1.2,0.7,2.5,1.3,3.7,2
		c1.6,0.9,2.6,2.4,2.8,4.2c0.1,0.4,0.1,0.7-0.4,0.9c-5,2-5.6,5.7-5.4,10c0.2,3,0.7,6,0.3,9c-0.3,2.9-1.6,5.2-4.1,6.7
		c-0.5-0.5-0.4-1.2-0.4-1.8c0-4.3-0.5-8.5-1.6-12.6c-0.9-3.4-2.3-6.6-4.6-9.2c-2.3-2.6-5.2-4.1-8.6-4.1c-6.9,0.1-13.7-0.7-20.6-1.4
		c-4.6-0.5-9.2-0.4-13.8-0.2c-4.1,0.2-8.2,0.5-12.3,0.8c-4.8,0.4-9.5,0.4-14.3,0.4c-7.4,0-14.6-1.1-21.6-3.4c-4-1.3-8-2.2-12.2-2.1
		c-7.1,0.1-12.6,3.1-16.6,9c-0.7,1.1-1.4,2.2-1.9,3.3c-3.8,7.5-13.1,8.1-17.9,1.2c-1.2-1.7-2.3-3.4-3.6-4.9c-3.6-4.2-8-7.1-13.6-7.9
		c-3.1-0.4-6.2-0.3-9.3,0.3c-5.4,1-10.7,2.8-15.9,4.6c-3.3,1.1-2.7,1.1-4.9-1.4c-3-3.4-6.5-5.8-11.2-6.4c-1.7-0.2-3.4,0-5,0.4
		c-3.8,0.9-7.2,2.7-10.5,4.8c-3,1.9-5.9,4.1-8.8,6c-4.9,3.3-10.4,4.7-16.3,5.2c-4.3,0.4-8.6,0.1-12.9-0.8c-4.6-1-8.9-2.8-12.4-5.9
		c-1-0.9-2.2-1.8-2.3-3.3c0.3-0.5,0.9-0.6,1.4-0.8c4.1-1.2,8.3-1.7,12.5-1.9c5.5-0.3,10.9-0.1,16.4-0.5c6.6-0.4,13.1-1.5,19.1-4.7
		c2.5-1.3,4.9-2.8,7-4.8c2.9-2.8,6.5-3.7,10.4-3.9c5.4-0.3,10.7,0.3,16,0.8c4.6,0.4,9.1,1,13.7,0.4c0.7-0.1,1.3-0.2,2-0.3
		c4.3-0.8,6.8-3.4,7.9-7.6c0.2-0.7,0.2-1.5,0.9-2C229.3,0,238.2,0,247.2,0z"/>
	<path style="fill:#EF4326;" d="M383.1,78.6c-0.7-3.4-1.9-6.7-1.3-10.3c0.7-3.9,2.1-7.4,4.1-10.8c0.7-0.9,0.7-1.8,0.3-2.8
		c-0.1-2.2,0-4.3-0.2-6.5c-0.5-4.9-1.4-9.7-3.8-14.1c-2.8-5-6.9-7.8-12.9-7.5c-3.8,0.2-7.7-0.1-11.5-0.6c-6.2-0.7-12.5-1.4-18.8-1.1
		c-8.6,0.4-17.1,1.4-25.7,1.5c-7.1,0.1-14.1-0.4-20.9-2.3c-4.3-1.2-8.6-2.8-13.1-3.2c-5.3-0.4-10.3,0.3-14.7,3.4
		c-3.2,2.2-5.4,5.2-7.1,8.6c-0.9,1.8-2,3.4-3.7,4.5c-4.6,3-10.3,1.9-13.5-2.7c-1.3-1.9-2.6-3.8-4.1-5.5c-3.6-4.1-7.9-6.9-13.4-7.7
		c-4.7-0.7-9.2,0-13.8,1.2c-4.6,1.2-9.1,2.8-13.6,4.3c-0.7,0.2-1.1,0.2-1.6-0.5c-0.6-0.9-1.4-1.7-2.1-2.4c-5.5-5.6-11.7-6.9-19-4
		c-3.4,1.3-6.5,3.3-9.5,5.3c-3,2-5.6,4.4-8.9,5.9c-10.4,5-21,5.3-31.7,1.4c-3.8-1.4-7.2-3.6-9.5-7.2c-1-0.9-1.9-1.8-2.9-2.7
		c-1.1,1-2.2,2-3.4,2.9c-9,6.8-19.2,8.6-30.1,6.3c-7.1-1.5-14.3-2.5-21.5-3.1c-5.3-0.4-10.5-1.2-15.6-2.6
		c-8.6-2.3-16.4,2.1-18.8,10.5c-1.3,4.4-0.8,8.7,1.1,12.9c0.9,2.1,1.6,4.3,1.9,6.7c0.9,7.7,0.7,15.3,0.2,23
		c-0.4,6.6-1.3,13.2-2.3,19.7c-1.2,8-2.4,16-3.5,24.1c-0.8,5.9-1.3,11.9-1.6,17.9c-0.3,8,1.2,15.7,3,23.5c1.2,5.3,2.5,10.5,3.3,15.8
		c0.7,4.5,1,9,1.8,13.5c0.8,4,0,7.8-2,11.5c-1.1,2-1.7,4.2-1.9,6.5c-0.5,4.6,0,9,2.9,12.9c1.3,1.7,2.3,3.5,3.1,5.4
		c2.6,6,2.3,12.1,0.7,18.2c-1.3,5-3.5,9.8-4.8,14.8c-1.7,6.7-3.3,13.5-3.5,20.5c-0.4,10.2,2.2,19.5,8.2,27.7
		c1.1,1.5,1.9,3.2,2.4,5.1c0.8,3.3,0.5,6.5-0.2,9.7c-0.9,4.4-1.7,8.8-1.6,13.4c0.1,8.3-0.1,16.6-0.1,24.8c0,0.9-0.3,1.1-1.2,1.1
		c-3.2,0-6.4,0-9.6,0c-0.7,5.4-1.5,10.7-2.2,16.1c-0.5,3.7-1,7.3-1.4,11c3.2,2,5.5,4.8,6.7,8.5c1,3.2,0.9,6.5,0.6,9.9
		c-0.3,3.9-1.1,7.8-1,11.8c0.1,2.4,0.5,4.8,0.6,7.2c0.2,5.2-0.5,10.3-1.1,15.4c-0.3,2.4,0.2,4,2.4,5.5c5.2,3.4,10.9,4.5,16.9,4.6
		c5.8,0.1,11.7-0.4,17.5-0.7c4.9-0.2,9.9-0.5,14.8-0.8c8.5-0.5,17-0.9,25.5-1.1c10.7-0.2,21.3,0,32,1.1c6.3,0.6,12.5,1.5,18.7,2.8
		c2.9,0.6,5.7,1.1,8.7,0.6c2.4-0.4,4.8-0.6,7.1-0.9c1.9-0.3,1.9-0.3,2.9,1.4c2.3,3.9,4.5,7.7,6.8,11.6c0.3,0.6,0.6,0.8,1.3,0.6
		c7.6-2.2,15.4-2.9,23.2-3.1c6.4-0.1,12.8,0,19.2,0c4.9,0,9.7-0.2,14.6-0.7c3.9-0.4,7.8-1.2,11.7-1.7c5.5-0.7,10.9-1.4,16.4-2
		c6.1-0.6,12.2-1.2,18.2-1.9c4.7-0.5,9.4-0.9,14-1.5c4.3-0.5,8.5-0.5,12.8,0c6.1,0.7,12.1,2.2,18.1,3.4c4.5,1,9,2.2,13.6,2.5
		c2.9,0.2,4.9-0.6,6.1-3.1c0.8-1.6,1.8-3.1,2.9-4.5c3.1-4.1,7-6.9,12.2-7.5c4.3-0.5,8.5,0.2,12.5,1.4c5,1.6,10,3.3,15,4.9
		c0.9,0.3,1.3,0.3,1.3-0.9c-0.1-8.7-0.1-17.4-0.1-26.2c0.1-40.6-0.2-81.2,0.2-121.8c0.1-5.9,0-11.8,0.1-17.6
		c0.1-3.1-1.2-5.4-3.6-7.2c-1.5-1.1-3.2-2.1-4.7-3.3c-3.6-2.6-4.2-5.2-2.7-9.4c3.6-9.9,7.2-19.8,8.2-30.4c0.7-7.3,0-14.3-3.7-20.8
		c-1.6-2.8-2.7-5.8-3.6-8.9c-2.3-7.9-1.8-16-0.6-24c1-6.5,2.3-12.9,2.7-19.4c0-0.7,0.4-1,0.9-1.2c1.3-0.5,2.7-1,4-1.6
		c0.9-0.4,1.4-1,1.4-2.1c0.1-4.6,0.3-9.1,0.5-13.7c0.4-8.5,1-17.1,1.3-25.6c0.3-8.1,0.3-16.3-0.3-24.4
		C385.2,91.3,384.4,84.9,383.1,78.6z M235.7,110.5c0.3-3.6,2.8-5.9,6.8-6.4c3.5-0.5,7.1-0.6,10.6-1.3c6.5-1.4,12.6-3.7,18.7-6.2
		c3.4-1.4,6.6-3.2,10.2-4.2c6.3-1.7,12.5-1,18.5,1.6c4.5,1.9,8.5,4.7,12,8.2c3.3,3.3,6.8,6.4,9.8,10c2.3,2.7,4.2,5.5,5,9
		c1.1,5-0.3,9.5-3.2,13.5c-2.3,3.1-3.5,6.5-3.8,10.2c-0.3,3.9-0.4,7.9-0.8,11.8c-0.5,5.2-2.4,9.7-6.9,12.7c-1.3,1.7-1.5,3.8-1.9,5.7
		c-0.5,1.9-1.1,3.7-3,4.7c-0.6,0.3-1,0.4-1.6,0c-3.8-2.3-7.7-4.5-11.5-6.9c-1.9-1.2-3.3-2.9-4.7-4.6c-3.7-4.1-7-8.7-10.9-12.6
		c-3.3-3.3-7-6-11.4-7.6c-0.5-0.2-0.8-0.5-1.1-0.9c-1.4-1.8-2.4-3.9-3.5-5.9c-0.8-1.3-1.5-2.5-2.5-3.6c-1.9-2.2-4.3-3.4-7.3-3.3
		c-1.1,0-2-0.3-2.8-1.1c-1.1-1-2.2-2-3.3-2.9c0,0,0,0,0,0c-3.8-4.4-8-8.5-10.3-14C236.1,114.7,235.5,112.6,235.7,110.5z
		 M157.3,383.3c-1.1,3.8-2.6,7.6-2.7,11.6c0,0.6-0.3,0.5-0.7,0.4c-1.3,0-2.6,0-4,0c-10.8-0.2-20.9,2.5-30.8,6.5
		c-4.3,1.8-8.8,2.8-13.5,3c-6.8,0.2-13.1-1.8-18.9-5.3c-5.5-3.3-10.3-7.5-15-11.9c-3.4-3.1-6.7-6.3-9.4-10c-5-7-6.2-14.6-4.3-22.9
		c1.2-5.3,3.5-10.2,5.4-15.2c4.3-11.1,7.6-22.4,11.1-33.8c1.2-4.1,2.6-8.2,3.8-12.2c0.2-0.8,0.6-0.9,1.4-1
		c7.3-0.6,12.8,2.7,17.5,7.8c3.2,3.4,6,7.2,9.3,10.5c1.6,1.6,3.4,3.1,5.4,4.1c0.6,0.3,0.8,0.7,0.8,1.4c0.1,4.2,1.9,7.6,5.6,9.6
		c2.3,1.3,3.9,3.1,5.5,5c4.4,5.4,8.4,11.2,12.7,16.7c5.3,6.8,11,13.1,18.1,18.2c2.4,1.7,3.5,4.6,4,7.6
		C159,376.8,158.2,380.1,157.3,383.3z M339.9,353.7c-0.2,0.2-0.4,0.4-0.6,0.6c-0.1,2.4-0.2,4.7-0.3,7.1c-1.6,7.9-2.1,16-4.8,23.7
		c-1.5,4.4-3.8,8.3-7.8,10.9c-2.6,1.7-5.4,2.4-8.4,3c-6.6,1.2-13.2,2-19.9,1.8c-13.9-0.5-25.1-6.2-33.1-17.7
		c-4.4-6.3-8.4-13-12.7-19.5c-5.3-7.9-11-15.5-17.9-22.1c-4-3.9-8.4-7.3-13.1-10.2c-0.6-0.3-0.9-0.7-0.8-1.4
		c0.8-4.7-0.8-8.7-3.7-12.3c-6.9-8.5-13.4-17.3-20-25.9c-8.1-10.5-16.4-20.8-25.7-30.3c-5.6-5.7-10-12.5-14.4-19.2
		c-4.1-6.2-8.1-12.4-12.9-18c-4.1-4.7-8.7-8.9-14.2-12c-0.9-0.5-1.3-1.1-1.5-2.2c-0.6-4.2-2.8-7.7-5.7-10.7
		c-2.2-2.3-4.4-4.5-6.6-6.8c-3-3-4.8-6.7-7-10.3c-6.9-11.1-14.8-21.6-23-31.7c-7.7-9.4-15.7-18.4-23.7-27.5c-2.1-2.3-4.3-4.5-6.2-7
		c-4.4-5.8-3.4-12.2-0.3-16.5c1.6-2.1,3.7-3.5,6.1-4.3c5.6-1.9,11.4-3.2,17.3-3.4c8.8-0.3,16.5,2.8,23.5,8
		c6.5,4.8,12.1,10.6,17.7,16.3c8.2,8.4,16.5,16.8,27,22.5c2,1.1,4,2.1,6.2,2.8c1.6,0.5,2.6,1.5,3.7,2.7c4.3,4.6,8.8,9,14,12.5
		c3.1,2.1,6.5,3.8,10.1,5c0.5,0.2,1,0.4,1.3,0.8c6.1,8.9,14,15.9,22.6,22.2c6.9,5,14.1,9.6,21.2,14.3c0.8,0.5,1.4,1.2,2,2
		c2.3,3.6,4.8,7.1,8.1,9.9c3,2.5,6.3,4.2,10.1,4.9c0.7,0.1,1,0.4,1.1,1.1c0.7,5.8,4,9,9.6,9.7c0.7,0.1,1.3,0.4,1.7,0.9
		c4.1,4.4,8.3,8.8,12.8,12.8c6.2,5.6,13,10.3,20.9,13.1c0.4,0.2,0.8,0.3,1,0.8c1.7,4.3,4.9,7.3,8.3,10.2c2.2,1.9,4.7,3.6,6.4,6.1
		c1.1,1.6,2.6,2.5,4.3,3.2c2.5,1.1,5.1,2.3,7.6,3.5c1.2,0.5,1.9,1.5,2.8,2.4c3.2,3.2,5.9,6.8,9.2,9.9c3,2.8,6.3,5.1,10.3,6.1
		c0.6,0.1,0.9,0.5,1.2,0.9c4.1,5.5,6.6,11.7,7.4,18.5C352.6,329.6,348.3,342.3,339.9,353.7z"/>
	<path style="fill:#141010;" d="M247.1,130.6c-0.4-0.8-0.3-1.7-0.1-2.6c0.6-4.4,2.9-7.4,7-9.1c3.6-1.5,7.5-2.1,11.3-2.7
		c5.9-0.9,11.8-0.9,17.7-0.7c5.1,0.2,10.2,0.6,15.3,1.1c1.2,0.1,2.4,0.1,3.6,0.3c1.4,0.2,1.7,0.4,1.8,1.8c0.9,6.7,2.6,13.3,4.3,19.8
		c1.8,6.8,3.6,13.7,4.5,20.7c0.4,2.8,0.5,5.6,0.6,8.5c0,0.6,0,1.2-0.4,1.7c4.5-3,6.5-7.5,6.9-12.7c0.4-3.9,0.4-7.9,0.8-11.8
		c0.3-3.7,1.5-7.1,3.8-10.2c2.9-4,4.2-8.5,3.2-13.5c-0.7-3.5-2.7-6.4-5-9c-3-3.6-6.5-6.7-9.8-10c-3.5-3.5-7.4-6.3-12-8.2
		c-6-2.5-12.1-3.3-18.5-1.6c-3.6,1-6.8,2.8-10.2,4.2c-6.1,2.5-12.2,4.9-18.7,6.2c-3.5,0.7-7,0.9-10.6,1.3c-4,0.5-6.5,2.8-6.8,6.4
		c-0.2,2.1,0.3,4.1,1.1,6.1C239.2,122.1,243.4,126.2,247.1,130.6z"/>
	<path style="fill:#141010;" d="M154.4,365.8c-7.1-5-12.9-11.3-18.1-18.2c-4.3-5.5-8.3-11.3-12.7-16.7c-1.6-1.9-3.2-3.8-5.5-5
		c-3.6-2-5.5-5.4-5.6-9.6c0-0.7-0.2-1.1-0.8-1.4c-2-1.1-3.8-2.5-5.4-4.1c-3.4-3.3-6.1-7-9.3-10.5c-4.7-5.1-10.2-8.4-17.5-7.8
		c-0.7,0.1-1.1,0.2-1.4,1c-1.2,4.1-2.5,8.2-3.8,12.2c-3.4,11.3-6.8,22.7-11.1,33.8c-1.9,5-4.2,9.9-5.4,15.2
		c-1.9,8.3-0.7,15.9,4.3,22.9c2.7,3.8,6.1,6.9,9.4,10c4.7,4.4,9.5,8.6,15,11.9c5.8,3.5,12,5.5,18.9,5.3c4.7-0.1,9.2-1.2,13.5-3
		c9.9-4.1,20.1-6.7,30.8-6.5c1.3,0,2.6,0,4,0c0.4,0,0.7,0.1,0.7-0.4c0.2-4,1.7-7.8,2.7-11.6c0.9-3.2,1.7-6.5,1.1-9.9
		C157.9,370.5,156.9,367.6,154.4,365.8z M127,378.2c-10.3,4.8-21,6.6-32.1,3.6c-5.7-1.5-10.6-4.4-14.2-9.2c-1.9-2.4-2.6-5.3-2.8-8.3
		c-0.6-13,3-24.7,11-35.1c0.6-0.8,1.3-1.5,2.1-2.3c4.9,5.9,10.5,10.9,16,16.2c4.7,4.5,9.2,9.1,12.9,14.4c4.1,5.9,6.9,12.3,7.8,19.5
		C127.6,377.7,127.5,378,127,378.2z"/>
	<path style="fill:#141010;" d="M343.5,296.8c-0.3-0.4-0.6-0.8-1.2-0.9c-4-1-7.3-3.3-10.3-6.1c-3.3-3.1-6-6.8-9.2-9.9
		c-0.9-0.9-1.6-1.8-2.8-2.4c-2.5-1.2-5.1-2.3-7.6-3.5c-1.7-0.8-3.1-1.6-4.3-3.2c-1.7-2.4-4.2-4.1-6.4-6.1c-3.4-2.9-6.6-6-8.3-10.2
		c-0.2-0.5-0.5-0.6-1-0.8c-7.9-2.9-14.7-7.6-20.9-13.1c-4.5-4-8.6-8.4-12.8-12.8c-0.5-0.5-1-0.8-1.7-0.9c-5.7-0.7-8.9-4-9.6-9.7
		c-0.1-0.7-0.4-1-1.1-1.1c-3.8-0.7-7.2-2.4-10.1-4.9c-3.3-2.8-5.8-6.3-8.1-9.9c-0.5-0.8-1.2-1.5-2-2c-7.1-4.7-14.3-9.2-21.2-14.3
		c-8.6-6.3-16.5-13.4-22.6-22.2c-0.3-0.5-0.8-0.7-1.3-0.8c-3.6-1.2-6.9-2.9-10.1-5c-5.2-3.5-9.7-7.9-14-12.5
		c-1.1-1.2-2.2-2.2-3.7-2.7c-2.2-0.7-4.2-1.7-6.2-2.8c-10.5-5.7-18.8-14.1-27-22.5c-5.6-5.8-11.2-11.6-17.7-16.3
		c-7-5.1-14.7-8.3-23.5-8c-5.9,0.2-11.7,1.5-17.3,3.4c-2.4,0.8-4.5,2.2-6.1,4.3c-3.2,4.2-4.2,10.7,0.3,16.5c1.9,2.5,4.1,4.7,6.2,7
		c8,9.1,16.1,18.1,23.7,27.5c8.3,10.1,16.1,20.6,23,31.7c2.2,3.5,4,7.3,7,10.3c2.2,2.2,4.5,4.5,6.6,6.8c2.9,3.1,5.1,6.5,5.7,10.7
		c0.2,1.1,0.6,1.6,1.5,2.2c5.5,3.1,10.1,7.3,14.2,12c4.9,5.6,8.9,11.8,12.9,18c4.4,6.7,8.7,13.4,14.4,19.2
		c9.3,9.5,17.7,19.8,25.7,30.3c6.6,8.7,13.1,17.5,20,25.9c3,3.6,4.5,7.6,3.7,12.3c-0.1,0.7,0.3,1.1,0.8,1.4
		c4.8,2.9,9.1,6.4,13.1,10.2c6.9,6.6,12.7,14.2,17.9,22.1c4.3,6.5,8.2,13.1,12.7,19.5c8,11.4,19.2,17.1,33.1,17.7
		c6.7,0.3,13.3-0.6,19.9-1.8c3-0.5,5.8-1.3,8.4-3c4-2.6,6.3-6.5,7.8-10.9c2.7-7.7,3.2-15.8,4.8-23.7c-6.8,0-13.6,0-20.4,0
		c-0.9,0-1.2,0.2-1.4,1.1c-0.7,4.9-1.5,9.9-2.2,14.8c-0.1,0.6-0.2,1-0.9,1.2c-10.6,3.7-21,3.9-31.4-0.8c-5.2-2.4-9.4-5.9-12.7-10.7
		c-7.1-10.5-13.4-21.4-18.7-33c-0.3-0.8-0.7-1.5-1.2-2.2c-1.4-1.8-2.6-2.6-4.9-1.8c-1.1,0.4-2.2,0.7-3.3,1c-2.4,0.6-3.8-0.2-4.6-2.6
		c-0.5-1.6-0.5-3.3-0.6-5c-0.1-3.7-0.7-7.4-1.1-11.1c-0.1-0.5-0.1-0.9-0.6-1.2c-7.2-5.7-12.8-12.9-18-20.5
		c-4.8-7-9.3-14.3-14.6-20.9c-2.9-3.6-5.7-7.3-9-10.5c-3.9-3.7-8.4-4.9-13.6-3.3c-0.1,0-0.2,0-0.4,0c-0.9-6.3-2.8-12.4-5.5-18.1
		c-3.7-7.7-8.7-14.5-14.3-20.9c-4.8-5.5-10-10.7-15.1-16.1c-6.5-6.9-12-14.6-17.5-22.3c-6.3-8.8-13-17.4-20.6-25.3
		c-0.9-0.9-1.6-1.9-2.4-2.9c-1.6-2.3-1.6-4,0.1-6.2c1.6-2,3.5-3.7,5.4-5.4c0.8-0.7,1.5-2,2.4-1.9c0.6,0.1,1,1.7,1.5,2.6
		c4.1,7.7,10.1,13.6,17.2,18.6c4.7,3.3,9.7,6.2,14.7,9c9.8,5.4,18.8,11.7,26.9,19.4c12.7,12,26.4,22.9,40,33.9
		c10.2,8.3,20.8,16.1,30.4,25.1c8,7.5,15.9,15,23.9,22.6c11.4,10.8,23.7,20.5,37,28.9c7.6,4.8,14.4,10.5,20.1,17.4
		c8,9.7,11.8,20.8,11.9,33.3c0,0.8,0.1,1.6,0.2,2.4c0.3,2.1,1.4,3.6,3.4,4.4c0.2-0.2,0.4-0.4,0.6-0.6c8.3-11.5,12.7-24.1,11-38.4
		C350.1,308.5,347.7,302.3,343.5,296.8z"/>
</g>
</svg>
