<?xml version="1.0" encoding="utf-8"?>
<!-- Generator: Adobe Illustrator 16.0.0, SVG Export Plug-In . SVG Version: 6.00 Build 0)  -->
<!DOCTYPE svg PUBLIC "-//W3C//DTD SVG 1.1//EN" "http://www.w3.org/Graphics/SVG/1.1/DTD/svg11.dtd">
<svg version="1.1" id="Layer_1" xmlns="http://www.w3.org/2000/svg" xmlns:xlink="http://www.w3.org/1999/xlink" x="0px" y="0px"
	 width="250.6px" height="253.2px" viewBox="0 0 250.6 253.2" style="enable-background:new 0 0 250.6 253.2;" xml:space="preserve"
	>
<g>
	<path style="fill-rule:evenodd;clip-rule:evenodd;fill:#EF4326;" d="M250.6,245.1c-2.7-1.2-5.4-2.1-7.7-3.5c-3-1.9-6.4-2.8-9.5-4.6
		c-0.2-0.1-0.6-0.1-0.9,0c-2,0.3-4,0.7-6,0.9c-1.6,0.1-2.6,1.1-3.6,2.4c1.9,0.8,3,2.1,3,4.4c-0.8-0.2-1.5-0.5-2.3-0.5
		c-0.6,0-1.3,0-1.7,0.4c-1,0.8-2,1.1-3.2,1.4c-3.7,0.9-7.3,0.2-10.9-0.3c-1.2-0.2-2.3-1.2-3.4-2c-0.7-0.5-1.3-0.7-2.1-0.4
		c-3,1.1-6,1.1-8.9-0.4c-0.1,0-0.2,0-0.2-0.1c-3.2-1.7-6.2-0.7-8.9,0.9c-2.2,1.3-4.6,1.4-7,1.9c-1,0.2-2.1,0.3-3.2,0.6
		c-1,0.3-1.7,0-2.2-0.8c-0.3-0.5-0.7-0.9-1.1-1.3c-0.2,0.1-0.3,0.2-0.3,0.2c-0.5,2.2-0.5,2.2-2.8,2.4c-1,0.1-2,0.3-2.7,1.1
		c-1.5,1.9-3.7,2.3-5.8,2.3c-1,0-2.1-1-3.2-1.5c0-0.1,0.1-0.3,0.1-0.4c1.9-0.1,3.9-0.3,6.1-0.5c-0.4-0.9-0.8-1.7-1.2-2.4
		c-0.1-0.2-0.6-0.2-0.8-0.2c-6.4,1.7-12.9,1-19.3,0.7c-1.1,0-1.7,0.2-2.1,1.3c-0.3,1-1.1,1.3-2.1,1.7c-3,1.1-5.5-0.2-8-1.4
		c-1.2-0.6-2-0.5-2.5,0.7c-0.5,1.1-1.2,1.3-2.3,0.8c-0.8-0.4-1.8-0.5-2.6-1c-4.1-2.2-8.3-1.3-12.6-0.2c0.2,1.3,0.5,2.6,0.8,4.2
		c-2.1-0.9-4-1.7-5.8-2.6c-0.3-0.1-0.4-0.6-0.5-0.9c-0.8-2-1.6-4.1-2.4-6.1c-0.2-0.7-0.6-0.8-1.2-0.6c-1.6,0.4-3.4,0.5-4.9,1.1
		c-1.6,0.6-3.1-0.3-4.7-0.1c-0.2,0-0.5-0.3-0.7-0.5c-0.5-0.5-1-1.1-1.5-1.7c-1.4,1.2-2.7,2.3-4,3.5c-0.7-1.1-1.5-2.2-2.1-3.3
		c-0.4-0.8-1-0.9-1.9-0.6c0,1,0,2.1,0,3.3c-2-1.1-3.3-3-5.8-3.7c0.3,1.3,0.6,2.2,0.9,3.3c-1.8-1.2-3.3-2.1-4.8-3.1
		c-0.1,0-0.1,0.1-0.2,0.1c0.3,1,0.7,1.9,1.1,3.1c-1.6-0.7-3.4-0.1-4.5-1.8c-0.1-0.2-0.6-0.2-0.9-0.2c-1.1,0.2-2.2,0.4-3.3,0.8
		c-1,0.4-1.6,0.1-2-0.8c-0.2-0.5-0.6-0.9-0.9-1.3c-0.2,0.1-0.3,0-0.3,0.1c-1.1,1.7-2.4,1.4-3.9,0.6c-0.8-0.4-1.5-0.3-2.3,0.1
		c-1.7,0.9-3.5,1.6-5.4,2.5c0-1.2,0-2.2,0-3.2c-1.7-0.7-2.2,0.8-3.1,1.3c-1.3-0.4-2.1-2-3.9-1.4c0.3,0.9,0.6,1.9,1,3.1
		c-3.4-2-6.8-1-10.1-1.1c-2-0.1-3.8-0.3-5.5-1.2c-0.7-0.4-1.4-0.6-2.1-1c-0.1,0.2-0.2,0.4-0.2,0.5c-0.4,2-0.4,2.2-2.4,1.8
		c-2.3-0.3-4.4,0-6.4,1c-1.2,0.6-1.9,0.3-2.6-0.8c-0.6-0.9-1.3-1.7-1.9-2.5c-0.2,0.1-0.4,0.1-0.4,0.1c-2.4,2.5-4.7,0.6-7-0.3
		c-0.3-0.1-0.5-0.9-0.5-1.3c0-3,0.1-5.9,0.1-8.9c0.2-12.9,0.3-25.8,0.5-38.8c0-0.5,0-0.9,0-1.6c1.4,0.2,2.6,0.4,3.8,0.5
		c0,0.1,0,0.2-0.1,0.4c0.5-0.4,1-0.8,1.7-1.3c-0.3-1.6-0.5-3.3-0.9-5.1c-0.2-1-0.2-2,0.4-2.9c0.9-1.5,1.1-3.1,0.9-4.8
		c-0.3-2.6-0.4-5.2-0.6-7.8c-0.1-1.1,0.1-1.9,0.8-2.7c0.6-0.7,1.1-1.5,1.7-2.3c-1.6-1-3-2.2-4.6-2.9c-2.4-1.1-2.9-2.8-2.8-5.3
		c0.3-8,0.3-16,0.4-24c0-0.4,0-0.9,0.1-1.4c0.8,0.1,1.5,0.3,2.6,0.4c-0.9-1.7-1.6-3.3-2.4-4.8c0.1-0.1,0.1-0.1,0.2-0.2
		c1.4,0.7,2.8,1.5,4.4,2.3c0.2-1.8,0.2-3.5,0.5-5.1c0.7-3.2,0-5.7-2.6-7.8c-2-1.6-2.6-4-2.5-6.6c0.1-1.2,0.1-2.5,0-3.7
		c-0.1-1.6,0.2-2.9,1.2-4.2c1-1.2,1.5-2.8,0.3-4.4c-1.2-1.8-1.4-3.8-1.4-5.9c0.3-23.5,0.6-47,0.9-70.6c0-0.6,0-1.3,0-2.1
		c-1.1,0-2,0-3,0c-1.1,0-1.9-0.9-1.6-2c0.5-1.6,1-3.2,1.6-4.9c1.1,0.3,2.1,0.5,3.3,0.8c0.4-1.3,0.7-2.6,1.1-3.8
		c0.4-1.4,1-1.8,2.4-1.6c3.2,0.5,6-0.3,8.4-2.5c0.6-0.5,1.1-1.1,1.7-1.5c0.7-0.4,1.4-0.6,2.4-1.1c-0.1,1.1-0.2,1.7-0.3,2.4
		c0.4,0.1,0.8,0.2,1.3,0.2c1.1,0.1,2.2,0.1,3.4,0.2C28.1,3.7,30.3,4,32,1.8c0.8,1.3,1.5,2.4,2.3,3.6c0.9-1,1.7-2,2.6-3
		c0.6,0.7,1.1,1.4,1.7,2c0.2,0.2,0.7,0.5,1,0.4c3.3-1.3,6.6-0.2,9.9-0.1c0.2,0,0.3,0,0.5,0.1c2.1,0.4,4.1,0.3,5-2.1
		c0.2,0.1,0.3,0.1,0.4,0.2C56,5,56,5,58.3,5c1.1,0,2.2-0.1,3.2,0c1,0.1,1.5-0.2,1.3-1.3c0-0.3,0-0.6,0-1.3C64.4,3.8,65.7,5,67,6.2
		c0.7,0.7,1.5,1,2.6,1C74.9,7,80.3,6.9,85.6,6.8c1.5-0.1,2.8,0.2,4,1.1c0.5,0.4,1,0.6,1.7,1c0.4-1.2,0.8-2.4,1.1-3.5
		c0.2-0.7,0.5-1,1.2-0.9c0.2,0,0.4,0,0.6,0c1.8,0.3,3-0.4,4-1.8c0.3-0.5,1.1-0.9,1.7-1c1.6-0.3,3.2-0.5,4.7-0.7
		c0.9-0.1,1.3,0.3,1.5,1.1c0.1,0.6,0.3,1.1,0.6,1.8c0.3-0.4,0.5-0.6,0.6-0.8c0.6-1.9,2-2.3,3.9-2.3c2.6,0.1,5.3-0.1,7.9-0.3
		c0.9,0,1.4,0.2,1.5,1.1c0,0.4,0.1,0.7,0.3,1c0.2,0.6,0.1,1.3,1.1,1.4c1,0,1.7-0.1,1.9-1.3c0.2-1.2,0.8-1.4,2-1.3
		c1.8,0.2,3.6,0.3,5.3,1.3c0.4,0.2,1,0.2,1.5,0c3.6-1.5,7.5-1.3,11.3-1.8c0.3,0,0.8,0.2,1,0.5c2,1.8,4,3.7,6,5.6
		c0.4,0.3,0.6,0.8,0.8,1.3c0.5,1.1,0.9,2.3,1.4,3.5c0.6-0.2,1.1-0.3,1.6-0.5c2.4-1,5-1.5,7.6-1.6c0.7,0,1.1-0.2,1.2-1
		c0.2-1.7,0.5-3.3,0.7-4.9c4.9-2,10.3-1.9,15.6-1.3c1,0.1,1.9,0.5,2.8,1c2.4,1.3,4.8,2,7.5,2c2.5,0,4.9,0.3,7.4,0.5
		c0.8,0.1,1.5-0.1,2-0.8c1.3-1.9,3.1-2.6,5.3-1.9c1,0.3,2,0.3,3.1,0.4c0.5,0,1,0,1.4-0.2c1.4-0.5,2.6-1.1,2.1-3.1
		c1.8,0.2,3.3,0.5,3.6,2.6c0,0.3,0.7,0.6,1.1,0.8c0.2,0.1,0.5,0,0.7,0c2,0.1,4.1,0.3,4.5-2.6c1.9,0.9,3.7,1.6,5,3.1
		c0.5,0.6,1,0.8,1.9,0.5c1.6-0.6,3.2-0.9,4.3-2.4c0.2-0.2,0.7-0.2,1.1-0.1c2.2,0.5,4.4,0.9,6.5,1.5c0.4,0.1,0.9,0.4,1.2,0.7
		c1,1.2,2.4,1.8,3.7,2.5c1.6,0.9,3,2.1,4.5,3.2c0.2,0.2,0.3,0.6,0.2,1c-0.2,2.8-0.5,5.5-0.6,8.3c-0.1,1-0.4,1.8-1.2,2.5
		c-0.3,0.3-0.6,1-0.5,1.4c1.1,3.5,1.6,7.2,1.6,10.9c0.2,9.6,0.4,19.2,0.6,28.8c0,2.2,0,4.3,0.1,6.5c0.3,4.3-0.9,8.5-1.5,12.7
		c-0.1,1.2-0.2,2.4-0.3,3.7c-1.9-0.1-3.9-0.2-6.1-0.3c0.7,1.7,1.2,3.1,1.8,4.6c0.9,2.5,1.1,1.7-0.8,3.5c-1.4,1.4-2.7,2.9-4,4.4
		c-0.3,0.3-0.3,1.1-0.1,1.5c0.5,1.1,1.1,2.1,1.8,3.2c0.9-0.5,1.7-0.9,2.9-1.5c-0.5,1-0.8,1.7-1.2,2.4c-0.4,0.6-0.2,1,0.3,1.4
		c1,0.8,1.9,1.7,2.9,2.5c0.7,0.5,0.9,1.1,0.7,2c-0.3,1.7-0.4,3.5-0.7,5.2c-0.1,0.8,0.1,1.2,0.9,1.4c0.3,0.1,0.5,0.2,0.8,0.3
		c1.6,0.6,2.2,2.3,1,3.6c-1.5,1.7-1.3,3.9-1.8,5.9c-0.1,0.2,0.3,0.6,0.5,0.9c0.6,0.5,1.2,1,1.9,1.6c-0.3,0.2-0.5,0.3-0.7,0.4
		c-2.2,1-2.2,1-2,3.5c0.2,2.1,0.4,4.3,0.6,6.6c-1.6-0.1-3.1-0.2-4.8-0.3c0.3,1,0.4,1.8,0.7,2.5c0.1,0.3,0.6,0.6,1,0.6
		c1.3,0.1,2.6,0.2,4,0.2c1.1,0,1.5,0.3,1.5,1.5c0.2,13.1,0.4,26.2,0.6,39.2c0.3,18.6,0.6,37.3,0.9,55.9
		C250.6,240.8,250.6,242.9,250.6,245.1z M74.7,64.3c-0.4-1.5-0.8-3-1.2-4.5c-0.2-0.6-0.6-1.1-1-1.5C65,53,57.1,48.3,49.1,43.8
		c-0.3-0.2-0.7-0.4-1.1-0.4c-4.1,0-8.2-0.5-11.9,1.8c-1,0.6-2.2,1-3.3,1.5c-1.6,0.7-3.2,1.4-5,2.2c0.5,0.6,1,1.1,1.4,1.5
		C49,71.1,68.6,91.8,88.2,112.5c0.9,0.9,1.8,1.4,3.1,1.6c1.4,0.2,2.8,0.6,4.4,1c-0.9,1.1-1.6,2-2.3,2.8c7.6,8,15.2,16,22.9,24.1
		c0.5-1.1,0.9-1.9,1.4-3.1c3.2,6.1,5.8,12.2,11.4,16.2c1-1.4,1-1.4-0.2-2.5c-1.4-1.4-2.8-2.7-4.2-4.1c0.4-0.5,0.8-0.9,1.2-1.4
		c1.7,1.9,3.2,3.8,4.8,5.5c1,1,1.6,2.1,1.3,3.5c-0.4,2.2,0.7,3.6,2.4,4.9c0.5-0.4,1-0.9,1.6-1.4c0.4,0.8,0.9,1.6,1.2,2.3
		c0.5,1.5,1.6,2.2,3.1,2.5c2.7,0.6,2.7,0.7,2.2,3.4c-0.2,1.2,0,2,0.9,3c4.6,4.8,9.2,9.7,13.8,14.5c6.4,6.7,12.4,13.8,19.9,19.4
		c0.5,0.4,1.2,0.7,1.8,0.7c7.6,0.3,15.3,0.5,22.9,0.8c2.2,0.1,3.7-1.3,5.4-2.2c0.2-0.1,0.3-0.4,0.4-0.6c3.6-9.5,7.9-18.7,10.6-28.5
		c0.4-1.5,0.9-2.9,1.1-4.4c0.5-3.6,0.7-7.3,1.1-11c0.1-0.8-0.1-1.2-0.8-1.7c-6.6-4.4-13.2-8.9-19.8-13.3c-0.5-0.3-1.2-0.5-1.8-0.5
		c-2.4-0.1-4.8,0-7.2,0c-2.3,0-2.3,0-3-2.5c1.4,0,2.7,0,4.1,0c-0.1-1.4-0.2-2.5-1.4-3.3c-32.9-22.2-65.9-44.5-98.8-66.8
		c-1-0.7-1.9-1.2-3.1-1.1c-2.2,0.2-3.7-0.6-4-2.9c-0.1-0.7-0.6-0.8-1.2-0.7c-0.9,0.2-1.9,0.4-2.8,0.6c-0.1-1,0-2-0.4-2.7
		c-1.3-1.9-2.4-2.1-4.4-1C75.4,63.9,75.1,64.1,74.7,64.3z M96.7,197.9c-16.3-16-32.5-31.9-48.8-47.9c-0.4,0.7-0.6,1.1-0.8,1.6
		c-4.7,10.7-9.4,21.5-14.2,32.1c-1.2,2.6-1.6,5-0.6,7.6c0.3,0.9,0.7,1.5,1.4,2.1c5.1,3.8,10.1,7.7,15.2,11.6
		c0.4,0.3,0.8,0.5,1.3,0.9c0.4-1.5,0.8-2.8,1.2-4.1c0.2-0.1,0.3-0.2,0.5-0.2c-0.8,3,1,3.9,3.1,4.4c1.8,0.5,3.3,1.3,4.2,3.1
		c0.1,0.2,0.5,0.6,0.7,0.6c1.7-0.1,3.4,0.2,5-0.4c7.3-2.5,14.6-5.2,21.9-7.8C89.9,200.4,93.1,199.2,96.7,197.9z M148.9,53.9
		c13.6,10.2,26.9,20.2,40.3,30.2c0.3-0.6,0.5-1,0.7-1.5c1,1,2.3,1.7,2.2,3.3c0,0.2,0.2,0.5,0.3,0.6c1.3,1,2.6,2,4.1,3.1
		c0.5-1,1.2-1.8,1.3-2.7c1.9-9.4,3.6-18.8,5.4-28.1c0.1-0.4,0-0.9,0-1.5c-1.4,0.8-2.7,1.4-4.2,2.2c0.6-1.4,1-2.5,1.4-3.6
		c0.2-0.3,0.4-0.7,0.7-0.9c1.3-0.8,1.4-1.2,0.1-2.1c-3.9-2.7-7.8-5.5-11.7-8.2c-0.3-0.2-0.8-0.5-1.2-0.5c-1.9,0.2-3.9,0.2-5.8,0.6
		c-10.7,2.7-21.3,5.5-31.9,8.3C150.3,53.4,149.8,53.6,148.9,53.9z"/>
</g>
</svg>
